HIERARCHY
ROOT Hips
{
  OFFSET -35.2597 29.1586 114.425
  CHANNELS 6 Xposition Yposition Zposition Zrotation Xrotation Yrotation
  JOINT LeftUpLeg
  {
    OFFSET 8.64259 1.95398 -2.38835
    CHANNELS 3 Zrotation Xrotation Yrotation
    JOINT LeftLeg
    {
      OFFSET 43.7702 0 0
      CHANNELS 3 Zrotation Xrotation Yrotation
      JOINT LeftFoot
      {
        OFFSET 40.6238 0 0
        CHANNELS 3 Zrotation Xrotation Yrotation
        JOINT LeftToeBase
        {
          OFFSET 12.7242 0 0
          CHANNELS 3 Zrotation Xrotation Yrotation
          End Site
          {
            OFFSET 0 0 0
          }
        }
      }
    }
  }
  JOINT RightUpLeg
  {
    OFFSET -8.2249 1.95398 -2.59336
    CHANNELS 3 Zrotation Xrotation Yrotation
    JOINT RightLeg
    {
      OFFSET 43.5653 0 0
      CHANNELS 3 Zrotation Xrotation Yrotation
      JOINT RightFoot
      {
        OFFSET 40.6238 0 0
        CHANNELS 3 Zrotation Xrotation Yrotation
        JOINT RightToeBase
        {
          OFFSET 12.7242 0 0
          CHANNELS 3 Zrotation Xrotation Yrotation
          End Site
          {
            OFFSET 0 0 0
          }
        }
      }
    }
  }
  JOINT Spine
  {
    OFFSET 0.165834 0.87714 6.61349
    CHANNELS 3 Zrotation Xrotation Yrotation
    JOINT Spine1
    {
      OFFSET 7.38963 1.71661e-005 0
      CHANNELS 3 Zrotation Xrotation Yrotation
      JOINT Spine2
      {
        OFFSET 11.9445 1.14441e-005 0
        CHANNELS 3 Zrotation Xrotation Yrotation
        JOINT Spine3
        {
          OFFSET 14.7254 4.19617e-005 0
          CHANNELS 3 Zrotation Xrotation Yrotation
          JOINT Spine4
          {
            OFFSET 10.9679 0 0
            CHANNELS 3 Zrotation Xrotation Yrotation
            JOINT RightShoulder
            {
              OFFSET 2.46616 -1.6653 3.69651
              CHANNELS 3 Zrotation Xrotation Yrotation
              JOINT RightArm
              {
                OFFSET 13.0012 0 0
                CHANNELS 3 Zrotation Xrotation Yrotation
                JOINT RightForeArm
                {
                  OFFSET 28.7848 1.62311e-005 0
                  CHANNELS 3 Zrotation Xrotation Yrotation
                  JOINT RightHand
                  {
                    OFFSET 26.5688 1.62095e-005 0
                    CHANNELS 3 Zrotation Xrotation Yrotation
                    End Site
                    {
                      OFFSET 0 0 0
                    }
                  }
                }
              }
            }
            JOINT LeftShoulder
            {
              OFFSET 2.38034 -1.29275 -3.7523
              CHANNELS 3 Zrotation Xrotation Yrotation
              JOINT LeftArm
              {
                OFFSET 16.3182 6.07031e-005 0
                CHANNELS 3 Zrotation Xrotation Yrotation
                JOINT LeftForeArm
                {
                  OFFSET 27.0901 0 0
                  CHANNELS 3 Zrotation Xrotation Yrotation
                  JOINT LeftHand
                  {
                    OFFSET 24.5451 1.51738e-005 0
                    CHANNELS 3 Zrotation Xrotation Yrotation
                    End Site
                    {
                      OFFSET 0 0 0
                    }
                  }
                }
              }
            }
            JOINT Neck
            {
              OFFSET 5.0226 -0.0266342 0
              CHANNELS 3 Zrotation Xrotation Yrotation
              JOINT Head
              {
                OFFSET 6.69364 2.86102e-005 0
                CHANNELS 3 Zrotation Xrotation Yrotation
                End Site
                {
                  OFFSET 0 0 0
                }
              }
            }
          }
        }
      }
    }
  }
}
MOTION
Frames:	15
Frame Time:	0.0416667
0.62394 93.7803 -25.8965 97.4067 -61.5134 99.6261 -176.732 16.1105 101.622 -44.5525 31.2641 6.24407 87.5175 19.1836 -5.93846 23.4228 -9.30164 11.3117 171.381 13.7917 68.2871 -29.3903 -20.1115 -9.47372 63.2893 -0.681487 -1.39727 16.2003 4.7105 1.90522 -0.281772 7.90743 -90.7276 11.0517 -0.898117 -1.36149 -0.619575 -0.957167 -1.32065 -23.1498 -0.447481 -1.56842 -3.13718 -0.447474 -1.56842 91.9156 -33.3088 -101.911 44.6759 12.2273 17.1061 -4.34964 -25.0624 -5.01162 -18.2802 2.28527 -19.8961 -84.2252 -50.8692 87.5101 -19.6947 -15.2074 -26.6907 3.81271 44.173 -4.88959 1.7286 -0.933114 -27.5821 -22.7292 -6.15419 -4.92873 -12.6715 -6.58177 -0.130192 
-8.58305 91.1392 -19.4151 97.7364 -61.0199 98.4496 -175.615 15.5057 107.859 -43.6215 33.8332 7.80824 87.9813 18.9133 -7.288 30.4189 -6.73355 15.2042 170.7 17.5465 67.4178 -33.6698 -20.235 -7.73533 60.6127 0.672903 -0.161235 22.1599 2.90088 -0.387062 -0.529337 7.98385 -90.6016 10.9004 -1.33205 -1.06993 -0.770218 -1.37787 -1.01027 -23.3052 -0.948943 -1.42077 -3.29253 -0.948957 -1.42078 92.9559 -33.0452 -99.9869 45.3482 12.8019 20.1781 -4.51625 -28.4742 -5.06825 -17.0706 2.11253 -19.8209 -83.9964 -51.0366 87.8706 -18.1564 -16.096 -21.7035 3.59237 40.5759 -4.6664 4.75245 -1.39767 -25.0635 -22.5151 -6.84851 -4.31045 -13.0434 -7.05788 -1.94159 
-20.0578 90.5564 -12.2146 104.957 -63.9629 104.028 -176.151 13.9498 113.261 -46.503 38.4722 12.169 67.981 6.71261 -2.01143 42.4873 -0.500816 19.4729 169.263 18.9124 70.3503 -43.1424 -21.3328 -4.6392 64.8948 -3.34002 0.749297 39.5499 -3.58765 -4.44824 -0.437358 8.40141 -90.3949 10.0668 -1.05113 -0.697357 -1.60386 -1.08081 -0.650414 -24.1396 -0.792959 -0.981017 -4.12691 -0.792962 -0.981016 92.8205 -32.2079 -100.478 47.2807 12.3375 19.6514 -4.55196 -29.1824 -5.08139 -17.8478 1.88858 -17.6965 -83.2008 -51.5277 89.108 -14.0738 -17.9254 -12.5671 3.25936 34.047 -4.32605 2.15956 -0.876669 -23.8607 -23.166 -4.9418 -1.18234 -12.6485 -4.86001 -2.8542 
-30.5796 92.6107 -6.61168 110.996 -67.2834 110.404 173.481 17.7898 112.557 -62.2742 38.292 19.6744 50.6635 -5.64938 -0.874498 14.6234 -11.3991 5.99989 169.467 16.7014 77.4037 -45.0318 -19.6845 -2.48512 70.3767 -6.97764 1.86244 39.2492 -4.24565 -0.534126 -0.0911124 8.76531 -90.4221 9.34133 -0.371256 -0.80913 -2.32979 -0.406502 -0.792016 -24.8631 -0.110921 -0.883295 -4.85043 -0.110922 -0.883299 91.0915 -32.0023 -103.907 44.9485 11.9387 16.0977 -4.56227 -29.3867 -5.0855 -20.4218 2.20722 -17.8382 -82.8363 -53.0588 89.7843 -12.1374 -18.2548 -4.44354 3.1597 31.7072 -4.22696 0.167488 -0.538145 -24.3317 -24.7366 -3.365 0.400034 -12.0085 -3.1101 -3.32844 
-38.2579 95.1442 -2.72408 112.242 -71.3051 111.166 172.277 27.3498 105.992 -65.5222 27.6076 12.3879 60.0921 0.387352 1.77993 7.34731 -14.409 3.35137 170.515 13.5646 82.1215 -39.6705 -19.7856 -1.26032 72.2231 -8.06899 1.77946 36.0939 -3.49211 2.03754 0.394868 8.81372 -90.4631 9.24803 0.579898 -0.959501 -2.42315 0.537119 -0.984102 -24.9575 0.841452 -0.740872 -4.94484 0.841457 -0.740868 91.4829 -30.8753 -103.515 40.0671 11.7583 9.75429 -4.47415 -27.6291 -5.05308 -21.9181 2.9836 -21.0038 -82.7671 -54.4252 90.0015 -14.6556 -17.1559 0.754972 3.24666 33.7387 -4.3143 1.86965 -0.71928 -21.2246 -25.7377 -3.27833 0.976417 -11.5036 -2.96775 -3.55376 
-44.1759 97.36 1.01491 110.731 -76.1582 109.236 -176.657 35.3031 94.404 -55.7701 19.1818 1.74995 64.2213 2.47788 -1.48508 14.1563 -12.672 7.00781 170.878 11.1471 85.1554 -32.9719 -22.4721 0.414976 71.8412 -7.57379 1.47082 31.7252 -2.14667 3.48539 0.829855 8.69717 -90.4918 9.48639 1.43321 -1.08167 -2.18425 1.38421 -1.1437 -24.7246 1.69201 -0.600855 -4.71191 1.69201 -0.60085 91.6853 -29.848 -103.457 36.9597 11.3578 2.38262 -4.32533 -24.5501 -5.00462 -25.7348 4.58973 -25.5885 -82.162 -53.4491 90.7991 -17.9566 -16.0779 5.98813 3.28527 34.2496 -4.3664 -0.845904 -0.3451 -23.0311 -26.222 -3.10672 1.21057 -10.2614 -2.84964 -2.95869 
-49.2262 97.9084 5.29346 110.119 -80.0586 109.865 -166.637 36.8528 83.7942 -46.0858 8.8247 -7.06778 64.9513 2.20244 -3.33415 20.9482 -9.53351 9.04584 171.626 8.8793 89.0961 -29.7684 -24.9886 2.22886 72.1717 -7.90554 0.16854 28.3532 -1.31258 4.9998 1.03886 8.56483 -90.784 9.75391 1.71612 -1.69189 -1.91713 1.64001 -1.76577 -24.4568 2.14521 -1.09787 -4.44417 2.14521 -1.09787 91.6982 -29.0349 -103.706 34.9452 11.0909 -3.93745 -4.43699 -26.8755 -5.03887 -27.4335 6.23882 -30.9845 -81.8898 -53.2369 91.1809 -19.8367 -15.6212 10.1992 3.33263 34.8882 -4.4286 -0.992441 -0.294525 -21.5633 -26.5302 -2.85018 2.25196 -10.2156 -2.57632 -1.84162 
-53.8819 96.6393 10.257 125.062 -83.0203 126.992 -162.247 31.8579 79.0871 -37.4565 -3.11829 -13.6015 61.0238 -0.889626 -4.53749 21.5827 -9.3291 9.3823 172.388 6.50233 93.5688 -32.5295 -25.2491 4.16499 75.9628 -10.4782 -0.47461 23.2159 -0.0401165 6.97236 1.17123 8.58196 -91.1653 9.72581 1.80764 -2.45379 -1.94633 1.69792 -2.53092 -24.4805 2.46142 -1.79724 -4.46788 2.46142 -1.79724 90.7315 -29.5929 -105.452 33.1558 11.2408 -7.87064 -4.68422 -31.737 -5.13501 -27.4649 7.33881 -35.2547 -81.7401 -53.9048 91.4448 -18.8713 -15.8499 12.468 3.32556 35.0264 -4.41128 -0.356055 -0.350581 -18.9291 -27.0514 -2.99053 3.65688 -10.3551 -2.63399 -0.992369 
-58.6854 94.4959 15.9919 136.451 -84.4439 139.877 -164.682 25.8273 77.3066 -28.3924 -13.945 -15.2032 56.7355 -3.87456 -5.38826 22.5637 -8.32449 8.79534 173.219 3.87048 97.6229 -35.3323 -25.7349 5.79815 79.9954 -13.509 -1.49035 21.0641 0.49481 7.64081 1.28677 8.42919 -91.4069 10.0328 1.92432 -2.95161 -1.64023 1.79262 -3.03337 -24.1697 2.72223 -2.23718 -4.15704 2.72222 -2.23719 90.7439 -30.0034 -105.28 32.3578 11.4084 -9.2152 -4.98791 -37.1126 -5.27787 -24.7326 7.18598 -37.973 -82.3893 -54.284 90.5344 -16.8438 -16.2865 12.4622 3.19807 32.617 -4.26564 0.98497 -0.43971 -16.2426 -26.2339 -3.46133 4.47454 -11.6956 -3.07777 -0.823423 
-65.0541 93.1968 22.852 164.804 -87.7485 166.897 -167.503 23.9054 77.1592 -28.1021 -17.1321 -13.6217 61.1812 -0.93482 -3.79226 16.4179 -9.60683 4.78057 175.157 0.0200135 100.543 -33.4508 -25.7688 5.75896 81.2904 -15.5075 -5.03084 16.9175 -0.482505 13.9335 1.64929 8.21252 -91.0074 10.4856 2.82273 -2.26245 -1.18446 2.72043 -2.38448 -23.7383 3.37213 -1.30904 -3.7257 3.37213 -1.30904 89.364 -29.4765 -108.228 33.6962 11.0224 -7.76503 -5.15836 -39.876 -5.36885 -22.3945 6.17934 -36.4843 -82.0763 -53.6235 90.9373 -15.874 -16.5894 8.59258 3.00277 27.6945 -4.06777 3.30241 -0.680243 -16.1864 -24.2191 -3.2668 3.59429 -13.0996 -3.0132 -0.763553 
-72.8543 93.6609 30.3241 -59.8889 -88.2595 -60.9987 -169.415 24.4496 77.0572 -31.1938 -3.30696 -11.2036 73.4373 7.35409 -1.44298 -0.124166 -15.3185 -1.35158 172.906 -0.605412 99.2219 -32.2063 -25.8458 7.46182 69.0241 -5.36003 0.102325 28.2248 -2.76009 8.5058 1.83108 7.87273 -90.0001 11.1403 3.64497 -0.350153 -0.525542 3.62603 -0.510453 -23.101 3.5814 0.762952 -3.08839 3.5814 0.762953 89.1945 -29.7105 -108.472 39.4699 8.80736 -6.32941 -5.19258 -40.3993 -5.38766 -21.9946 5.2763 -32.7439 -81.9622 -52.4495 91.0165 -13.4013 -17.311 5.86314 2.97681 26.956 -4.04205 2.70049 -0.675363 -17.541 -24.8141 -1.7562 0.678546 -13.159 -1.63422 -1.19238 
-79.4576 94.0303 36.5724 -120.616 -88.2426 -122.65 -169.654 22.1015 79.414 -37.8937 -4.68956 -8.8512 78.6532 10.844 -2.32468 4.26448 -13.4292 -0.29272 165.088 4.94368 94.2553 -46.0915 -26.972 9.10719 60.0466 0.86004 3.67376 34.4806 -2.59948 1.19715 1.73122 8.06506 -89.6618 10.7407 3.60338 0.340812 -0.925298 3.61488 0.181672 -23.4957 3.33418 1.4092 -3.48299 3.33417 1.40918 89.1505 -30.3669 -108.289 41.1798 8.91001 -2.50239 -5.47676 -44.5023 -5.55801 -24.2392 5.48772 -31.0544 -82.2634 -52.6071 90.5871 -12.6493 -17.6023 4.33773 3.12475 30.8119 -4.19308 1.6371 -0.550234 -17.4199 -25.2025 -0.464384 -0.359236 -12.3075 -0.410903 -1.00009 
-84.7926 95.6143 41.5737 -149.831 -86.8412 -151.39 -170.423 16.0852 83.0742 -35.5976 -4.74084 -6.17902 79.847 12.318 -3.59078 11.4669 -11.6134 3.19358 165.455 15.8498 89.3831 -66.6379 -18.9501 2.91204 64.2949 -2.51082 -1.82239 21.8453 1.10725 5.15494 1.49284 8.1814 -89.8273 10.513 3.05288 0.0712023 -1.15438 3.05306 -0.0633707 -23.7161 2.89022 0.986192 -3.70345 2.89023 0.986199 88.8488 -31.2452 -108.525 40.7041 10.3355 3.46318 -5.11909 -39.2561 -5.34706 -21.7846 4.474 -28.8495 -82.1922 -53.7303 90.7771 -12.3216 -17.7341 3.62586 3.07842 29.6967 -4.14352 0.907032 -0.523601 -19.4124 -26.243 0.255934 1.23665 -12.2419 0.421551 -0.476824 
-89.9304 96.8554 46.0706 145.674 -85.3912 146.095 -170.875 11.7454 87.9765 -33.0536 -0.513356 -3.63614 79.9268 13.3683 -3.57759 17.2823 -10.3365 6.62706 171.015 22.2642 83.6227 -66.2597 -15.739 -1.69185 66.0808 -3.8465 -3.76848 17.5535 2.91686 4.79865 0.97855 8.27412 -90.3259 10.333 1.80036 -0.804357 -1.33701 1.76322 -0.882833 -23.8816 1.95885 -0.225906 -3.86897 1.95886 -0.22591 89.3242 -31.4269 -107.537 40.7644 11.5641 9.73235 -4.8191 -34.2049 -5.19554 -22.0883 3.69212 -24.5259 -82.4668 -53.4904 90.3577 -14.7573 -17.1326 0.190394 3.01654 28.0745 -4.08157 3.44398 -0.957879 -21.3717 -27.122 -1.09075 1.55878 -10.84 -0.943967 -0.293651 
-95.6767 96.1378 50.6409 108.854 -78.061 110.919 -170.779 12.5839 93.672 -37.1551 8.16407 -1.21524 82.9404 15.3046 -4.83927 21.5072 -8.91178 8.62963 173.503 20.3539 77.0136 -49.1057 -22.0161 -5.27307 65.251 -3.1912 -1.90625 19.0407 3.08145 2.93734 0.208885 8.25616 -90.7706 10.3597 0.0634587 -1.5337 -1.3122 -0.00409403 -1.53502 -23.8407 0.521415 -1.44376 -3.82804 0.521417 -1.44376 91.4302 -32.2739 -103.155 39.9684 12.7143 14.7254 -4.79617 -33.7923 -5.1845 -18.2935 2.98608 -24.3009 -83.0234 -50.7164 89.2955 -19.4148 -15.5791 -6.43238 2.9943 27.6196 -4.0536 2.40591 -0.82136 -21.8803 -26.1004 -3.19899 -2.17325 -11.9225 -3.62455 1.51801 
